<svg xmlns="http://www.w3.org/2000/svg" width="48" height="46.5" viewBox="0 0 48 46.5">
  <defs>
    <style>
      .cls-1 {
        fill: #6abcc8;
        fill-rule: evenodd;
      }
    </style>
  </defs>
  <path id="article-icon-3" class="cls-1" d="M480.7,3409.05a1.5,1.5,0,0,1-1.464-1.17,20.5,20.5,0,0,1-.486-4.38,20.206,20.206,0,0,1,13.876-19.21,1.5,1.5,0,1,1,.945,2.84,17.2,17.2,0,0,0-11.4,20.1,1.5,1.5,0,0,1-1.141,1.79A1.814,1.814,0,0,1,480.7,3409.05Zm18.3,14.7a20.193,20.193,0,0,1-13.347-5.05,1.5,1.5,0,1,1,1.979-2.25,17.177,17.177,0,0,0,22.736,0,1.5,1.5,0,1,1,1.979,2.25A20.187,20.187,0,0,1,499,3423.75Zm18.3-14.7a1.8,1.8,0,0,1-.325-0.03,1.5,1.5,0,0,1-1.143-1.79,17.187,17.187,0,0,0-11.4-20.09,1.5,1.5,0,0,1,.944-2.85,20.191,20.191,0,0,1,13.387,23.59A1.492,1.492,0,0,1,517.3,3409.05Zm-34.8,11.7a7.5,7.5,0,1,1,7.5-7.5A7.512,7.512,0,0,1,482.5,3420.75Zm0-12a4.5,4.5,0,1,0,4.5,4.5A4.506,4.506,0,0,0,482.5,3408.75Zm16.5-16.5a7.5,7.5,0,1,1,7.5-7.5A7.512,7.512,0,0,1,499,3392.25Zm0-12a4.5,4.5,0,1,0,4.5,4.5A4.506,4.506,0,0,0,499,3380.25Zm16.5,40.5a7.5,7.5,0,1,1,7.5-7.5A7.512,7.512,0,0,1,515.5,3420.75Zm0-12a4.5,4.5,0,1,0,4.5,4.5A4.506,4.506,0,0,0,515.5,3408.75Z" transform="translate(-475 -3377.25)"/>
</svg>
